{"title":"The.Rachel.Maddow.Show.2013.05.24.SDTV.XviD","uid":8507065,"size":367036416,"categoryP":"video","categoryS":"tv_shows","magnet":"?xt=urn:btih:93f9dc96fe818a1ad8e44be7052db26211b472dd&amp;dn=The.Rachel.Maddow.Show.2013.05.24.SDTV.XviD&amp;tr=udp%3A%2F%2Ftracker.openbittorrent.com%3A80&amp;tr=udp%3A%2F%2Fopen.demonii.com%3A1337&amp;tr=udp%3A%2F%2Ftracker.coppersurfer.tk%3A6969&amp;tr=udp%3A%2F%2Fexodus.desync.com%3A6969","seeders":1,"leechers":0,"uploader":null,"files":1,"time":1369458967,"description":"\n\nThe Rachel Maddow Show\nFriday night show - May 24 - 2013\n\n\nVideo\nSource \t\t\t\t : Fuzzy SDTV\nFormat                           : MPEG-4 Visual\nFormat profile                   : Advanced Simple@L5\nFormat settings, BVOP            : 1\nFormat settings, QPel            : No\nFormat settings, GMC             : No warppoints\nFormat settings, Matrix          : Default (H.263)\nMuxing mode                      : Packed bitstream\nCodec ID                         : XVID\nCodec ID/Hint                    : XviD\nDuration                         : 43mn 18s\nBit rate                         : 961 Kbps\nWidth                            : 624 pixels\nHeight                           : 352 pixels\nDisplay aspect ratio             : 16:9\nFrame rate                       : 29.970 fps\nColor space                      : YUV\nChroma subsampling               : 4:2:0\nBit depth                        : 8 bits\nScan type                        : Progressive\nCompression mode                 : Lossy\nBits/(Pixel*Frame)               : 0.146\nStream size                      : 298 MiB (85%)\nWriting library                  : XviD 1.2.1 (UTC 2008-12-04)\n\nAudio\nID                               : 1\nFormat                           : MPEG Audio\nFormat version                   : Version 1\nFormat profile                   : Layer 3\nMode                             : Joint stereo\nMode extension                   : MS Stereo\nCodec ID                         : 55\nCodec ID/Hint                    : MP3\nDuration                         : 43mn 18s\nBit rate mode                    : Constant\nBit rate                         : 160 Kbps\nChannel(s)                       : 2 channels\nSampling rate                    : 48.0 KHz\nCompression mode                 : Lossy\nStream size                      : 49.6 MiB (14%)","torrent":{"xt":"urn:btih:93f9dc96fe818a1ad8e44be7052db26211b472dd","amp;dn":"The.Rachel.Maddow.Show.2013.05.24.SDTV.XviD","amp;tr":["udp%3A%2F%2Ftracker.openbittorrent.com%3A80","udp%3A%2F%2Fopen.demonii.com%3A1337","udp%3A%2F%2Ftracker.coppersurfer.tk%3A6969","udp%3A%2F%2Fexodus.desync.com%3A6969"],"infoHash":"93f9dc96fe818a1ad8e44be7052db26211b472dd","infoHashBuffer":{"type":"Buffer","data":[147,249,220,150,254,129,138,26,216,228,75,231,5,45,178,98,17,180,114,221]},"announce":[],"urlList":[]}}